<?xml version="1.0" encoding="UTF-8" standalone="no"?>
<svg width="150px" height="88px" viewBox="0 0 150 88" version="1.1" xmlns="http://www.w3.org/2000/svg" xmlns:xlink="http://www.w3.org/1999/xlink" xmlns:sketch="http://www.bohemiancoding.com/sketch/ns">
    <!-- Generator: Sketch Beta 3.0.4 (8156) - http://www.bohemiancoding.com/sketch -->
    <title>enemy</title>
    <desc>Created with Sketch Beta.</desc>
    <defs></defs>
    <g id="Lay1" stroke="none" stroke-width="1" fill="none" fill-rule="evenodd" sketch:type="MSPage">
        <g id="enemym" sketch:type="MSLayerGroup" transform="translate(0.000000, 1.000000)">
            <path style="fill:#8BB1B1;" d="M125.4,41.7c-1.3,0-2.5,0.1-3.7,0.3c0-0.1,0-0.2,0-0.3c0-10.6-8.6-19.2-19.2-19.2
            c-1.8,0-3.6,0.3-5.2,0.7C95.5,12.9,86.4,5,75.5,5C65.1,5,56.4,12.2,54,21.9c-1.4-0.3-2.9-0.5-4.4-0.5c-9,0-16.6,5.6-19.7,13.5
            C15.6,35.1,4,46.8,4,61.1c0,14.4,11.7,26.2,26.2,26.2c5.5,0,10.6-1.7,14.8-4.6c2.6,3.4,6.7,5.6,11.3,5.6c5.4,0,10-3,12.5-7.3
            c3,4,7.8,6.6,13.1,6.6c4.9,0,9.3-2.2,12.3-5.6c3.3,3.4,7.8,5.6,13,5.6c3.1,0,6-0.8,8.5-2.2c2.9,1.4,6.2,2.2,9.6,2.2
            c12.6,0,22.9-10.2,22.9-22.9C148.3,52,138,41.7,125.4,41.7z"/>
        <path style="fill:#FFFFFF;" d="M121.4,36.7c-1.3,0-2.5,0.1-3.7,0.3c0-0.1,0-0.2,0-0.3c0-10.6-8.6-19.2-19.2-19.2
            c-1.8,0-3.6,0.3-5.2,0.7C91.5,7.9,82.4,0,71.5,0C61.1,0,52.4,7.2,50,16.9c-1.4-0.3-2.9-0.5-4.4-0.5c-9,0-16.6,5.6-19.7,13.5
            C11.6,30.1,0,41.8,0,56.1c0,14.4,11.7,26.2,26.2,26.2c5.5,0,10.6-1.7,14.8-4.6c2.6,3.4,6.7,5.6,11.3,5.6c5.4,0,10-3,12.5-7.3
            c3,4,7.8,6.6,13.1,6.6c4.9,0,9.3-2.2,12.3-5.6c3.3,3.4,7.8,5.6,13,5.6c3.1,0,6-0.8,8.5-2.2c2.9,1.4,6.2,2.2,9.6,2.2
            c12.6,0,22.9-10.2,22.9-22.9C144.3,47,134,36.7,121.4,36.7z"/>
            <path style="fill:#0D0F0F;" d="M92.6,31.6c-0.9-0.1-1.8,0.2-2.6,0.4c-0.7,0.2-1.5,0.3-2.2,0.6c-0.1-0.2-0.2-0.4-0.3-0.6
                c-0.1-0.4-0.2-0.7-0.4-1.1c0.5-0.2,1-0.4,1.4-0.7c0.7-0.4,1.6-0.7,2.2-1.4c0.2-0.3,0-0.8-0.3-0.8c-0.8,0-1.6,0.6-2.3,1
                c-0.5,0.3-1,0.6-1.5,0.9c-0.6-0.9-1.4-1.6-2.6-1.6c-2.3,0.1-3.7,2.9-4.6,5c-1.4,3.2-2.4,7.6-1.7,11.1c0.1,0.3,0.5,0.3,0.5,0
                c0.3-2.7,0.3-5.2,1-7.8c0.7-2.5,2.1-6.9,4.9-6.7c0.7,0.3,1.4,0.7,1.9,1.5c0.7,1.5,0.8,3.7,0.9,5.2c0.1,0.7,0.1,1.4,0.2,2.1
                c-0.1,2.2-0.5,4.3-0.3,6.4c0,0.2,0.1,0.3,0.3,0.4c0.1,0.8,1.1,0.8,1.2,0c0.3-2.7,0.4-5.6,0.1-8.4c0-1.4-0.1-2.8-0.5-4.1
                c0.7,0,1.4-0.2,2.1-0.3c0.9-0.2,1.8-0.2,2.6-0.7C92.8,32,92.8,31.7,92.6,31.6z"/>
            <path style="fill:#0D0F0F;" d="M57.3,36.7c-0.1-1.6-0.3-3.3-0.6-4.9c-0.4-2.2-1.4-4.4-3.4-4.5c-1-0.1-1.8,0.2-2.5,0.8
                c-0.7,0.4-1.3,1.2-1.8,2c-0.2-0.4-0.3-0.8-0.5-1.3c-0.2-0.4-0.3-0.7-0.5-1.1c-0.2-0.4-0.4-0.6-0.7-0.9c-0.1-0.2-0.3,0-0.2,0.2
                c0.1,0.3,0,0.6,0.1,1c0.1,0.4,0.3,0.9,0.5,1.3c0.2,0.6,0.5,1.3,0.7,1.9c-0.1,0.2-0.2,0.4-0.3,0.6c-0.1,0.2-0.2,0.5-0.2,0.7
                c-0.3-0.5-0.7-1-1-1.4c-0.6-0.8-1.1-1.7-1.9-2.2c-0.1-0.1-0.4,0-0.3,0.3c0.4,1,1,1.9,1.6,2.8c0.4,0.6,0.7,1.4,1.3,1.8
                c-0.5,2.5-0.5,5.4,0.1,7.5c0.1,0.4,0.6,0.3,0.6-0.1c0-0.2,0-0.4,0-0.7c0.4-1.9,0.2-3.9,0.5-5.8c0.4-3,2.2-7.5,5.2-6
                c1.9,1,2.1,4.2,2.4,6.5c0.2,1.9-0.1,4.6,0.7,6.3c0,0.1,0.2,0.1,0.2,0C57.8,39.8,57.4,38.2,57.3,36.7z"/>
            <path style="fill:#0D0F0F;" d="M59.9,71.7c0.9-4.6,2-8.4,4.7-10.6c2.7-2.2,6.6-2.9,10.4,1.7c0,0,0.1,0,0,0
                c-3-5.1-7.4-4.5-9.8-3.1c-3,1.8-5.5,6-5.5,11.8C59.7,71.7,59.9,71.8,59.9,71.7z"/>
            <circle style="fill:#0C0E0F;" cx="51.1" cy="34" r="1.1"/>
            
                <ellipse transform="matrix(0.9273 -0.3742 0.3742 0.9273 -7.8446 33.482)" style="fill:#0C0E0F;" cx="82.3" cy="36.9" rx="1.1" ry="1.1"/>
            <path style="fill:#0D0F0F;" d="M69.4,52.7c-1.9,0.6-4.4,0.7-5.5-1.4c-1.3-2.2,0.1-3.8,1.2-5.5c0.1-0.2-0.1-0.4-0.3-0.4
                c-2.7,0.5-3.1,4.8-1.9,6.7c1.3,2.2,5,3.2,6.8,1.1C69.9,52.9,69.7,52.6,69.4,52.7z"/>
            <path style="fill:#0D0F0F;" d="M44.9,22.3c2.6-1,5.2-1.7,8-1.2c2.9,0.5,5.9,2.1,6.6,5.2c0,0,0,0,0,0c0.1-2.9-3.2-4.7-5.6-5.3
                c-2.9-0.8-6.6-0.6-9.1,1.2C44.8,22.2,44.8,22.3,44.9,22.3z"/>
            <path style="fill:#0D0F0F;" d="M92.7,28.2c-2.2-1.8-4.4-3.2-7.3-3.5c-2.9-0.4-6.3,0.2-7.8,2.9c0,0,0,0,0,0c0.8-2.8,4.5-3.5,7-3.4
                c3,0.1,6.4,1.4,8.3,3.9C92.8,28.2,92.7,28.3,92.7,28.2z"/>
        </g>
    </g>
</svg>