<?xml version="1.0" encoding="UTF-8" standalone="no"?>
<svg width="140px" height="100px" viewBox="0 0 140 100" version="1.1" xmlns="http://www.w3.org/2000/svg" xmlns:xlink="http://www.w3.org/1999/xlink" xmlns:sketch="http://www.bohemiancoding.com/sketch/ns">
    <!-- Generator: Sketch Beta 3.0.4 (8156) - http://www.bohemiancoding.com/sketch -->
    <title>enemy</title>
    <desc>Created with Sketch Beta.</desc>
    <defs></defs>
    <g id="Lay1" stroke="none" stroke-width="1" fill="none" fill-rule="evenodd" sketch:type="MSPage">
        <g id="enemy" sketch:type="MSLayerGroup" transform="translate(0.000000, 1.000000)">
            <path style="fill:#8BB1B1;" d="M117,43c-0.1,0-0.2,0-0.3,0c0.8-2,1.4-4.2,1.7-6.4c2-15.2-8.6-29.2-23.9-31.3
            c-10.2-1.4-19.8,3-25.7,10.6c-3.6-2.4-7.7-4.1-12.2-4.7c-14-1.9-27,6.7-31.1,19.7C14.5,34.2,5.9,43.6,4.3,55.6
            c-2.2,16.5,9.4,31.7,25.9,33.9c4.7,0.6,9.2,0.1,13.4-1.3c4.5,6.3,11.5,10.7,19.8,11.9c11.6,1.6,22.5-3.9,28.5-13.2
            c4.2,5.4,10.5,9.2,17.8,10.2c15,2,28.7-8.5,30.7-23.4C142.4,58.7,131.9,45,117,43z"/>
            <path style="fill:#DADBDB;" d="M113,38c-0.1,0-0.2,0-0.3,0c0.8-2,1.4-4.2,1.7-6.4c2-15.2-8.6-29.2-23.9-31.3
            c-10.2-1.4-19.8,3-25.7,10.6c-3.6-2.4-7.7-4.1-12.2-4.7c-14-1.9-27,6.7-31.1,19.7C10.5,29.2,1.9,38.6,0.3,50.6
            c-2.2,16.5,9.4,31.7,25.9,33.9c4.7,0.6,9.2,0.1,13.4-1.3c4.5,6.3,11.5,10.7,19.8,11.9c11.6,1.6,22.5-3.9,28.5-13.2
            c4.2,5.4,10.5,9.2,17.8,10.2c15,2,28.7-8.5,30.7-23.4C138.4,53.7,127.9,40,113,38z"/>
            <path style="fill:#FFFFFF;" d="M88.6,26.7c0,0-4.1,2.6-8,5c-4,2.4-7.5,3.9-7.5,3.9c-0.4,1.2-0.5,2.4-0.5,3.7c0,7.2,5.8,13,13,13
                    c7.2,0,13-5.8,13-13C98.5,33.3,94.3,28.1,88.6,26.7z"/>
            <ellipse transform="matrix(0.9396 -0.3421 0.3421 0.9396 -8.3172 31.6571)" style="fill:#242122;" cx="85.6" cy="39.4" rx="5.2" ry="5.1"/>
            <ellipse transform="matrix(0.9396 -0.3423 0.3423 0.9396 -8.3949 32.2138)" style="fill:#FFFFFF;" cx="87.1" cy="39.9" rx="1.5" ry="1.5"/>
            <path style="fill:#FFFFFF;" d="M67.4,35.3c0,0-4.4-2.3-7.8-4.2c-3.2-1.9-7.3-4.5-7.3-4.5C46.4,27.8,42,33,42,39.3
                    c0,7.2,5.8,13,13,13c7.2,0,13-5.8,13-13C68,37.9,67.8,36.5,67.4,35.3z"/>
            <ellipse transform="matrix(0.3422 -0.9396 0.9396 0.3422 6.374606e-002 77.7577)" style="fill:#242122;" cx="55.6" cy="38.8" rx="5.2" ry="5.2"/>
            <ellipse transform="matrix(0.3422 -0.9396 0.9396 0.3422 0.4723 79.5868)" style="fill:#FFFFFF;" cx="57.1" cy="39.5" rx="1.5" ry="1.5"/>
            <path style="fill:#FFFFFF;" d="M47.3,66.4c0.1-0.9,6.5-2,13.3-4.1c7.3-2.3,15.4-5.6,22.1-4.6c13,2,13,11.5,5.7,11.7
                C79.8,69.6,47.1,68.4,47.3,66.4z"/>
            <polygon style="fill:#9FA0A0;" points="95.3,24.5 69.5,34 71.9,34 48.5,23.8 70.6,36.6            "/>
        </g>
    </g>
</svg>