<?xml version="1.0" encoding="UTF-8" standalone="no"?>
<svg width="150px" height="88px" viewBox="0 0 150 88" version="1.1" xmlns="http://www.w3.org/2000/svg" xmlns:xlink="http://www.w3.org/1999/xlink" xmlns:sketch="http://www.bohemiancoding.com/sketch/ns">
    <!-- Generator: Sketch Beta 3.0.4 (8156) - http://www.bohemiancoding.com/sketch -->
    <title>enemy</title>
    <desc>Created with Sketch Beta.</desc>
    <defs></defs>
    <g id="Lay1" stroke="none" stroke-width="1" fill="none" fill-rule="evenodd" sketch:type="MSPage">
        <g id="enemym" sketch:type="MSLayerGroup" transform="translate(0.000000, 1.000000)">
            <path style="fill:#8BB1B1;" d="M147.6,67c0-10.7-7.2-19.6-17.1-22.2c0.3-1.8,0.5-3.6,0.5-5.5c0-15.7-12.7-28.4-28.4-28.4
            c-5.8,0-11.1,1.7-15.6,4.7C81.8,9.1,73.8,5,64.8,5c-12.4,0-23,7.9-27,18.9c-1.8-0.3-3.6-0.5-5.5-0.5C16.7,23.4,4,36,4,51.6
            c0,9.1,4.3,17.1,10.9,22.3c-0.3,1.6-0.5,3.2-0.5,4.9c0,15.4,12.5,27.9,27.9,27.9c6.7,0,12.8-2.3,17.6-6.2
            c3.1,1.6,6.6,2.5,10.3,2.5c2.7,0,5.3-0.5,7.7-1.4c5.2,4.5,12,7.2,19.4,7.2c12.6,0,23.3-7.8,27.7-18.8
            C137.6,89.7,147.6,79.5,147.6,67z"/>
            <path style="fill:#DADBDB;" d="M143.6,62c0-10.7-7.2-19.6-17.1-22.2c0.3-1.8,0.5-3.6,0.5-5.5c0-15.7-12.7-28.4-28.4-28.4
            c-5.8,0-11.1,1.7-15.6,4.7C77.8,4.1,69.8,0,60.8,0c-12.4,0-23,7.9-27,18.9c-1.8-0.3-3.6-0.5-5.5-0.5C12.7,18.4,0,31,0,46.6
            c0,9.1,4.3,17.1,10.9,22.3c-0.3,1.6-0.5,3.2-0.5,4.9c0,15.4,12.5,27.9,27.9,27.9c6.7,0,12.8-2.3,17.6-6.2
            c3.1,1.6,6.6,2.5,10.3,2.5c2.7,0,5.3-0.5,7.7-1.4c5.2,4.5,12,7.2,19.4,7.2c12.6,0,23.3-7.8,27.7-18.8
            C133.6,84.7,143.6,74.5,143.6,62z"/>

            <circle style="fill:#FFFFFF;" cx="54.8" cy="43.4" r="13.2"/>
            <circle style="fill:#242122;" cx="55.5" cy="43.4" r="8"/>
            <circle style="fill:#FFFFFF;" cx="59.4" cy="44.2" r="2.3"/>
            <circle style="fill:#FFFFFF;" cx="86.9" cy="43.4" r="13.2"/>

            <circle style="fill:#242122;" cx="86.6" cy="43.4" r="6.2"/>
            <circle style="fill:#FFFFFF;" cx="83.5" cy="44" r="1.8"/>

            <path style="fill:#B6B6B7;" d="M77.2,27.1c0,0,0.2-0.3,0.6-0.8c0.4-0.5,1.1-1.2,2.1-1.8c0.5-0.3,1-0.7,1.6-0.9
                c0.6-0.3,1.3-0.6,2-0.8c0.7-0.2,1.5-0.3,2.3-0.4c0.8-0.1,1.6-0.1,2.4,0l0.6,0.1c0.2,0,0.4,0.1,0.5,0.1c0.4,0.1,0.7,0.1,1.1,0.2
                c0.4,0.1,0.7,0.2,1.1,0.3c0.3,0.1,0.7,0.2,1,0.3c0.7,0.2,1.3,0.5,1.9,0.8c0.6,0.3,1.1,0.6,1.6,0.9c0.5,0.3,0.9,0.7,1.2,1
                c0.2,0.2,0.3,0.3,0.5,0.5c0.1,0.2,0.3,0.3,0.4,0.4c0.4,0.5,0.6,0.9,0.6,0.9s-0.1,0-0.2-0.1c-0.2-0.1-0.4-0.2-0.7-0.3
                c-0.6-0.2-1.4-0.5-2.5-0.8c-1-0.3-2.2-0.5-3.5-0.8c-0.3-0.1-0.6-0.1-1-0.2c-0.3-0.1-0.6-0.1-1-0.2c-0.3-0.1-0.7-0.1-1-0.2
                c-0.2,0-0.4-0.1-0.5-0.1l-0.5-0.1c-0.6-0.1-1.3-0.1-1.9-0.1c-0.6,0-1.3,0-1.9,0.1c-0.6,0.1-1.2,0.2-1.8,0.3
                c-0.6,0.1-1.1,0.3-1.6,0.4c-1,0.3-1.8,0.6-2.4,0.8C77.5,26.9,77.2,27.1,77.2,27.1z"/>
            <path style="fill:#B6B6B7;" d="M64.5,27.1c0,0-0.3-0.2-0.9-0.4c-0.6-0.2-1.4-0.6-2.4-0.8c-0.5-0.1-1-0.3-1.6-0.4
                c-0.6-0.1-1.2-0.2-1.8-0.3c-0.6-0.1-1.3-0.1-1.9-0.1c-0.6,0-1.3,0.1-1.9,0.1l-0.5,0.1c-0.2,0-0.4,0.1-0.5,0.1
                c-0.3,0.1-0.7,0.1-1,0.2c-0.3,0.1-0.7,0.1-1,0.2c-0.3,0.1-0.7,0.1-1,0.2c-1.3,0.3-2.4,0.5-3.5,0.8c-1,0.3-1.9,0.5-2.5,0.8
                c-0.3,0.1-0.5,0.2-0.7,0.3c-0.2,0.1-0.2,0.1-0.2,0.1s0.1-0.4,0.6-0.9c0.1-0.1,0.2-0.3,0.4-0.4c0.1-0.1,0.3-0.3,0.5-0.5
                c0.3-0.3,0.8-0.7,1.2-1c0.5-0.3,1-0.7,1.6-0.9c0.6-0.3,1.2-0.6,1.9-0.8c0.3-0.1,0.7-0.2,1-0.3c0.4-0.1,0.7-0.2,1.1-0.3
                c0.4-0.1,0.7-0.1,1.1-0.2c0.2,0,0.4-0.1,0.5-0.1l0.6-0.1c0.8-0.1,1.6-0.1,2.4,0c0.8,0.1,1.5,0.2,2.3,0.4c0.7,0.2,1.4,0.5,2,0.8
                c0.6,0.3,1.1,0.6,1.6,0.9c1,0.7,1.6,1.3,2.1,1.8C64.3,26.8,64.5,27.1,64.5,27.1z"/>
                <path style="fill:#3D4A5C;" d="M92.4,86.5c-0.4-0.3-0.8-0.6-1.2-1c-0.2-0.2-0.5-0.4-0.7-0.6c-0.2-0.2-0.5-0.5-0.8-0.7
                    c-0.3-0.2-0.5-0.5-0.8-0.8c-0.3-0.3-0.6-0.6-0.8-0.9c-0.3-0.3-0.5-0.6-0.8-1c-0.2-0.4-0.5-0.7-0.7-1.1c-0.5-0.8-0.9-1.6-1.2-2.4
                    c-0.1-0.2-0.2-0.4-0.2-0.6l-0.2-0.7l-0.1-0.3l-0.1-0.3l-0.1-0.7c-0.1-0.9-0.2-1.8-0.2-2.8c0-0.2,0-0.5,0-0.7
                    c0-0.2,0-0.5,0.1-0.7c0.1-0.5,0.1-0.9,0.2-1.3c0.2-0.9,0.4-1.7,0.6-2.5c0.3-0.8,0.5-1.5,0.8-2.2c0.6-1.4,1.1-2.5,1.5-3.2
                    c0.4-0.8,0.7-1.2,0.7-1.2s-0.4,0.3-1,1c-0.6,0.7-1.4,1.7-2.2,3c-0.2,0.3-0.4,0.7-0.6,1c-8.8-1.7-14.3-2.2-24.9-0.1
                    c-0.2-0.5-0.5-0.9-0.7-1.3c-0.8-1.3-1.6-2.3-2.2-3c-0.6-0.7-1-1-1-1s0.3,0.4,0.7,1.2c0.4,0.8,1,1.9,1.5,3.2
                    c0.3,0.7,0.6,1.4,0.8,2.2c0.2,0.8,0.5,1.6,0.6,2.5c0.1,0.4,0.1,0.9,0.2,1.3c0,0.2,0,0.5,0.1,0.7c0,0.2,0,0.5,0,0.7
                    c0.1,0.9,0,1.9-0.2,2.8l-0.1,0.7L59.6,76l-0.1,0.3L59.3,77c-0.1,0.2-0.2,0.4-0.2,0.6c-0.3,0.9-0.8,1.7-1.2,2.4
                    c-0.2,0.4-0.5,0.7-0.7,1.1c-0.2,0.4-0.5,0.7-0.8,1c-0.2,0.3-0.6,0.6-0.8,0.9c-0.3,0.3-0.5,0.6-0.8,0.8c-0.3,0.2-0.5,0.5-0.8,0.7
                    c-0.2,0.2-0.5,0.4-0.7,0.6c-0.5,0.4-0.9,0.7-1.2,1c-0.7,0.5-1.1,0.8-1.1,0.8s0.5-0.2,1.3-0.5c0.2-0.1,0.4-0.2,0.7-0.3
                    c0.2-0.1,0.5-0.3,0.8-0.4c0.3-0.2,0.6-0.3,0.9-0.5c0.3-0.2,0.6-0.4,0.9-0.6c0.3-0.2,0.6-0.5,1-0.7c0.3-0.3,0.7-0.5,1-0.8
                    c0.3-0.3,0.7-0.6,1-1c0.3-0.4,0.6-0.7,0.9-1.1c0,0,0,0,0-0.1c1.1,1.3,5.9,6.5,13.6,6.5c7.3,0,11-4.9,12.1-6.6
                    c0.1,0.2,0.3,0.4,0.4,0.6c0.3,0.4,0.6,0.8,0.9,1.1c0.3,0.4,0.7,0.7,1,1c0.3,0.3,0.7,0.6,1,0.8c0.3,0.3,0.6,0.5,1,0.7
                    c0.3,0.2,0.6,0.4,0.9,0.6c0.3,0.2,0.6,0.3,0.9,0.5c0.3,0.1,0.5,0.3,0.8,0.4c0.2,0.1,0.5,0.2,0.7,0.3c0.8,0.4,1.3,0.5,1.3,0.5
                    S93.1,87.1,92.4,86.5z"/>
                <path style="fill:#FFFFFF;" d="M58.9,81.3c0,0,6.4,1,13.1,1.1c6.7,0.1,12.1-1.1,12.1-1.1s-2.4,7.2-11,6.9S58.9,81.3,58.9,81.3z"
                    />
                <path style="fill:#C15346;" d="M58.9,81.5c0,0,2.2-8.4,11.2-4.1c10.8-3.8,14.1,4.1,14.1,4.1l-13.1,3.2L58.9,81.5z"/>
                <path style="fill:#FFFFFF;" d="M59.9,66.8c1.1,0.9,1.4,2.9,1.4,5.2l22-2.1c0.2-1,0.5-2.1,0.9-3.1C75.6,65.1,70.4,64.5,59.9,66.8
                    z"/>
            <circle style="fill:#FFFFFF;" cx="99.3" cy="68.2" r="6.4"/>
            <circle style="fill:#FFFFFF;" cx="42.9" cy="68.2" r="6.4"/>

        </g>
    </g>
</svg>