<?xml version="1.0" encoding="UTF-8" standalone="no"?>
<svg width="140px" height="100px" viewBox="0 0 140 100" version="1.1" xmlns="http://www.w3.org/2000/svg" xmlns:xlink="http://www.w3.org/1999/xlink" xmlns:sketch="http://www.bohemiancoding.com/sketch/ns">
    <!-- Generator: Sketch Beta 3.0.4 (8156) - http://www.bohemiancoding.com/sketch -->
    <title>enemy</title>
    <desc>Created with Sketch Beta.</desc>
    <defs></defs>
    <g id="Lay1" stroke="none" stroke-width="1" fill="none" fill-rule="evenodd" sketch:type="MSPage">
        <g id="enemy" sketch:type="MSLayerGroup" transform="translate(0.000000, 1.000000)">
            <path style="fill:#8BB1B1;" d="M117,43c-0.1,0-0.2,0-0.3,0c0.8-2,1.4-4.2,1.7-6.4c2-15.2-8.6-29.2-23.9-31.3
            c-10.2-1.4-19.8,3-25.7,10.6c-3.6-2.4-7.7-4.1-12.2-4.7c-14-1.9-27,6.7-31.1,19.7C14.5,34.2,5.9,43.6,4.3,55.6
            c-2.2,16.5,9.4,31.7,25.9,33.9c4.7,0.6,9.2,0.1,13.4-1.3c4.5,6.3,11.5,10.7,19.8,11.9c11.6,1.6,22.5-3.9,28.5-13.2
            c4.2,5.4,10.5,9.2,17.8,10.2c15,2,28.7-8.5,30.7-23.4C142.4,58.7,131.9,45,117,43z"/>
        <path style="fill:#FFFFFF;" d="M113,38c-0.1,0-0.2,0-0.3,0c0.8-2,1.4-4.2,1.7-6.4c2-15.2-8.6-29.2-23.9-31.3
            c-10.2-1.4-19.8,3-25.7,10.6c-3.6-2.4-7.7-4.1-12.2-4.7c-14-1.9-27,6.7-31.1,19.7C10.5,29.2,1.9,38.6,0.3,50.6
            c-2.2,16.5,9.4,31.7,25.9,33.9c4.7,0.6,9.2,0.1,13.4-1.3c4.5,6.3,11.5,10.7,19.8,11.9c11.6,1.6,22.5-3.9,28.5-13.2
            c4.2,5.4,10.5,9.2,17.8,10.2c15,2,28.7-8.5,30.7-23.4C138.4,53.7,127.9,40,113,38z"/>
            <path style="fill:#F0C9CB;" d="M57,50.5c-0.2,0-0.4,0-0.6,0c-2.5-0.7-5.3-0.3-7.8,0.4c-2.1,0.6-6.3,1.9-5.7,4.8
                c-0.2,0.9,0.1,1.9,0.8,2.7c1.6,1.9,4,1.4,6.1,0.8c2.6-0.7,10.2-1.9,8.8-6.1C58.9,52,58.4,50.6,57,50.5z"/>
            <path style="fill:#F0C9CB;" d="M83.7,55.7c-1.2-0.5-2.5-0.9-3.7-0.8c-0.3,0-0.5,0-0.7,0.1c0,0-0.1,0-0.1,0c-0.4,0-0.7,0-1.1,0.1
                c-1.1-0.5-2.4,0.4-2.5,1.5c-0.4,0.5-0.6,1.1-0.7,1.8c-0.2,2.6,1.8,4.5,3.8,5.8c3.4,2.2,10.2,3.5,11.5-1.9
                C91.1,58.6,87.4,56.5,83.7,55.7z"/>
            <path style="fill:#0D0F0F;" d="M44,43.9c0.9,0.2,1.8,0.1,2.7,0.1c0.8,0,1.5,0,2.3-0.1c0.1,0.2,0.1,0.4,0.2,0.6
                c0.1,0.3,0.2,0.6,0.3,0.9c-0.5,0.1-1,0.2-1.5,0.3c-0.8,0.2-1.7,0.3-2.3,0.8c-0.2,0.2-0.1,0.7,0.2,0.7c0.8,0.1,1.7-0.2,2.4-0.5
                c0.5-0.2,1.1-0.3,1.6-0.5c0.5,0.9,1.3,1.5,2.5,1.7c2.4,0.3,4.1-1.8,5.1-3.4c1.7-2.4,3.1-5.8,2.8-8.8c0-0.3-0.5-0.4-0.6-0.1
                c-0.5,2.1-0.8,4.1-1.8,6.1c-1,1.9-2.8,5.3-5.5,4.7c-0.7-0.4-1.3-0.8-1.8-1.5c-0.6-1.3-0.4-3.1-0.4-4.3c0-0.6,0-1.2,0-1.7
                c0.3-1.7,0.9-3.4,0.9-5.1c0-0.2-0.1-0.3-0.3-0.3c0-0.6-1-0.8-1.2-0.2c-0.6,2.2-0.9,4.5-1,6.8c-0.1,1.1-0.1,2.3,0.1,3.3
                c-0.7-0.1-1.5-0.1-2.2-0.1c-0.9,0-1.8-0.1-2.6,0.2C43.8,43.5,43.8,43.8,44,43.9z"/>
            <path style="fill:#0D0F0F;" d="M79.6,42.1c-0.1,1.5-0.2,3-0.1,4.4c0.2,2.1,0.9,4.3,3.3,5.1c1.2,0.4,2.3,0.4,3.2,0.2
                c0.9-0.1,1.8-0.5,2.5-1.1c0.1,0.4,0.3,0.9,0.4,1.3c0.1,0.4,0.2,0.8,0.4,1.1c0.2,0.4,0.4,0.7,0.6,1c0.1,0.2,0.3,0.1,0.3-0.1
                c0-0.3,0.1-0.6,0-0.9c-0.1-0.4-0.2-0.9-0.3-1.3c-0.2-0.7-0.4-1.3-0.6-2c0.1-0.1,0.3-0.3,0.4-0.4c0.1-0.2,0.3-0.3,0.4-0.5
                c0.3,0.5,0.7,1.1,1,1.5c0.6,0.9,1.1,1.9,1.9,2.6c0.1,0.1,0.5,0.1,0.4-0.1c-0.3-1-0.9-2-1.4-3c-0.4-0.6-0.7-1.5-1.3-2
                c1.1-2,1.5-4.5,1.2-6.6c-0.1-0.4-0.7-0.5-0.8-0.1c-0.1,0.2-0.1,0.4-0.2,0.6c-0.8,1.5-0.9,3.3-1.5,4.9c-0.9,2.5-3.9,5.8-7.2,3.5
                c-2.2-1.5-1.9-4.4-1.8-6.5c0.1-1.8,0.9-4,0.2-5.7c0-0.1-0.2-0.1-0.3,0C79.5,39.2,79.7,40.8,79.6,42.1z"/>
            <path style="fill:#0D0F0F;" d="M59.8,69.4c1.8-0.2,3.6-0.9,5.4-1.1c2.1-0.3,4.1-0.3,6.2,0c0.7,0.1,0.9-0.9,0.2-1
                c-3.8-0.6-8.8-1-12.1,1.3C59.1,68.8,59.3,69.5,59.8,69.4z"/>
            <path style="fill:#0D0F0F;" d="M48.2,19.9c-0.2,0-0.2,0.2-0.1,0.2c2.1,0.6,4.1,1.6,5.8,3c1.8,1.4,2.8,3.2,4.3,4.9
                c0.1,0.1,0.3,0,0.3-0.1C57.3,23.7,52.2,20.9,48.2,19.9z"/>
            <path style="fill:#0D0F0F;" d="M50.7,52.6c-1.5,0.1-3.2,1.4-4.3,2.4c-0.1,0.1,0,0.3,0.1,0.2c0.7-0.5,1.5-0.9,2.3-1.4
                c0.7-0.4,1.4-0.6,2-1.1C51,52.7,50.9,52.5,50.7,52.6z"/>
            <path style="fill:#0D0F0F;" d="M87.5,62.6c-2.4-2.8-6.3-4.7-9.5-6.2c-0.2-0.1-0.3,0.2-0.1,0.3c1.7,0.9,3.3,1.9,4.9,2.9
                c1.6,1,3,2.3,4.7,3.2C87.5,62.8,87.6,62.7,87.5,62.6z"/>
            <path style="fill:#0D0F0F;" d="M84.3,62.6c-1.2-0.9-2.6-1.4-3.8-2.1c-0.3-0.2-0.7,0.3-0.4,0.5c1.3,0.7,2.5,1.7,3.9,2.2
                C84.3,63.3,84.6,62.8,84.3,62.6z"/>
            <path style="fill:#0D0F0F;" d="M93,28.2c0.2,0,0.2,0.3,0,0.3c-2.2-0.2-4.4,0-6.5,0.7c-2.2,0.7-3.8,2-5.8,3
                c-0.1,0.1-0.3-0.1-0.2-0.2C83.2,28.5,88.9,27.7,93,28.2z"/>
        </g>
    </g>
</svg>