<?xml version="1.0" encoding="UTF-8" standalone="no"?>
<svg width="66px" height="86px" viewBox="0 0 66 86" version="1.1" xmlns="http://www.w3.org/2000/svg" xmlns:xlink="http://www.w3.org/1999/xlink" xmlns:sketch="http://www.bohemiancoding.com/sketch/ns">
    <!-- Generator: Sketch Beta 3.0.4 (8156) - http://www.bohemiancoding.com/sketch -->
    <title>plane</title>
    <desc>Created with Sketch Beta.</desc>
    <defs></defs>
    <g id="Page-1" stroke="none" stroke-width="1" fill="none" fill-rule="evenodd" sketch:type="MSPage">
        <g id="plane" sketch:type="MSLayerGroup" transform="translate(0.000000, 1.000000)">
            <g class="rocket" id="rocket-1" transform="translate(107, -10)" sketch:type="MSShapeGroup">
                <g class="rocket-body">
                    <path d="M0,21.66H7.81L0.57,33.06H9.69L18.24,16H11.51L18.24,0Z" style="fill: #ecba16"/>
                </g></g>

                <g class="rocket" id="rocket-2" transform="translate(65, -20)" sketch:type="MSShapeGroup">
                <g class="rocket-body">
                    <path d="M0,21.66H7.81L0.57,33.06H9.69L18.24,16H11.51L18.24,0Z" style="fill: #ecba16"/>
                </g></g>

                <g class="rocket" id="rocket-3" transform="translate(20, -10)" sketch:type="MSShapeGroup">
                <g class="rocket-body">
                    <path d="M0,21.66H7.81L0.57,33.06H9.69L18.24,16H11.51L18.24,0Z" style="fill: #ecba16"/>
                </g></g>
            <g id="planebody" sketch:type="MSShapeGroup">
                <path style="fill:#252525;" d="M18.1,69c0,0.1,0,0.3,0,0.4c0,11.7,9.5,21.2,21.2,21.2c0.6,0,1.2,0,1.7-0.1
                c2.8,9,11.2,15.6,21.1,15.6c7.2,0,13.6-3.4,17.6-8.8c3.1,1.3,6.5,2,10,2c10.4,0,19.3-6.1,23.5-15c1.5,0.3,3.1,0.4,4.7,0.4
                c14.6,0,26.5-11.9,26.5-26.5c0-13.3-9.7-24.2-22.4-26.1c0.6-2.1,0.9-4.3,0.9-6.6C122.9,11.5,111.4,0,97.2,0
                c-8,0-15.2,3.7-19.9,9.4C75.1,8.5,72.6,8,70,8c-2,0-3.9,0.3-5.8,0.9c-3.8-3.8-9-6.1-14.7-6.1c-10.6,0-19.3,7.9-20.6,18.1
                c-1.4-0.2-2.7-0.4-4.2-0.4C11.1,20.5,0,31.6,0,45.2C0,56.6,7.7,66.1,18.1,69z"/>
                <path style="fill:#ADADAD;" d="M22.1,74c0,0.1,0,0.3,0,0.4c0,11.7,9.5,21.2,21.2,21.2c0.6,0,1.2,0,1.7-0.1
                c2.8,9,11.2,15.6,21.1,15.6c7.2,0,13.6-3.4,17.6-8.8c3.1,1.3,6.5,2,10,2c10.4,0,19.3-6.1,23.5-15c1.5,0.3,3.1,0.4,4.7,0.4
                c14.6,0,26.5-11.9,26.5-26.5c0-13.3-9.7-24.2-22.4-26.1c0.6-2.1,0.9-4.3,0.9-6.6c0-14.2-11.5-25.6-25.6-25.6
                c-8,0-15.2,3.7-19.9,9.4C79.1,13.5,76.6,13,74,13c-2,0-3.9,0.3-5.8,0.9c-3.8-3.8-9-6.1-14.7-6.1c-10.6,0-19.3,7.9-20.6,18.1
                c-1.4-0.2-2.7-0.4-4.2-0.4C15.1,25.5,4,36.6,4,50.2C4,61.6,11.7,71.1,22.1,74z"/>
            
                <path style="fill:#F0C9CB;" d="M63.5,41.4c-0.1-0.2,2.8,1.6,4.8,2.2c1.2,0.1,3.1,0.7,4.3,0.7c3.9-0.2,6.9,0.5,10.2-0.5
                    c3.5-1,4.3-4.6,2.1-7.3c-1.8-2.3-4.9-3.5-7.8-3.8c-5-0.5-10,1.9-12.4,6.1"/>
                
                
                <path style="fill:#0D0F0F;" d="M101.4,81.3c2.3-0.8,3.9-3.9,2.4-6.1c-0.2-0.3-0.7-0.2-0.7,0.2c0,1.7-0.3,3.6-1.9,4.4
                    c-2,1.1-3.9-0.4-5-2c-0.2-0.3-0.7-0.2-0.7,0.2C95.7,80.8,99.1,82.2,101.4,81.3z"/>
                <path style="fill:#0D0F0F;" d="M55.9,84c2.2,0.1,4.5-2.2,3.6-4.5c-0.1-0.2-0.5-0.3-0.6,0c-0.2,1.5-1.1,3.2-2.8,3.2
                    c-1.9,0-2.3-1.8-2.8-3.2c-0.1-0.3-0.4-0.3-0.6-0.1C51.3,81.3,54,83.9,55.9,84z"/>
                
                
                <path style="fill:#0D0F0F;" d="M87.3,50.1c0.1-0.1,0.1-0.2,0.1-0.3c0-0.1,0.1-0.2,0.1-0.3c2.4-5.6-0.8-13-6-15.7
                    c-6-3.2-13.6-1.4-17.2,4.4c-2,3.1-2.6,6.9-1.8,10.5 M75.2,48.9 M65.8,37.1c2.5-3,6.3-4.5,10.2-4.3c4,0.2,7.7,2.3,9.8,5.7
                    c0.1,0.1,0.2,0.3,0.2,0.4c-1.6,1.2-3.1,2.4-5,3.3c-1.8,0.9-3.8,1.4-5.9,1.6c-2,0.2-4,0-5.9-0.4C67.1,43,65.4,42,63.5,41
                    C64,39.6,64.8,38.3,65.8,37.1z"/>
                
                <polygon style="fill:#0C0E0F;" points="102.5,62.3 102.5,58.6 98.8,58.6 98.8,54.9 85.7,54.9 85.7,58.6 82,58.6 82,62.3 
                    78.3,62.3 78.3,66 74.5,66 74.5,62.3 70.8,62.3 70.8,58.6 67.1,58.6 67.1,54.9 54.1,54.9 54.1,58.6 50.3,58.6 50.3,62.3 
                    46.6,62.3 46.6,66 46.6,67.9 46.6,69.8 106.2,69.8 106.2,67.9 106.2,66 106.2,62.3"/>
                
                    <rect x="101.5" y="65.1" transform="matrix(-1 2.696318e-010 -2.696318e-010 -1 204.9533 132.0853)" style="display:none;fill:#FFFFFF;" width="1.9" height="1.9"/>
                
                    <rect x="98.8" y="62.3" transform="matrix(-1 2.696335e-010 -2.696335e-010 -1 199.3675 126.4995)" style="display:none;fill:#FFFFFF;" width="1.9" height="1.9"/>
                
                    <rect x="96" y="59.5" transform="matrix(-1 2.696335e-010 -2.696335e-010 -1 193.7816 120.9137)" style="display:none;fill:#FFFFFF;" width="1.9" height="1.9"/>
                
                    <rect x="96" y="65.1" transform="matrix(-1 2.696335e-010 -2.696335e-010 -1 193.7816 132.0853)" style="display:none;fill:#FFFFFF;" width="1.9" height="1.9"/>
                
                    <rect x="93.2" y="62.3" transform="matrix(-1 2.696318e-010 -2.696318e-010 -1 188.1958 126.4995)" style="display:none;fill:#FFFFFF;" width="1.9" height="1.9"/>
                
                    <rect x="90.4" y="59.5" transform="matrix(-1 2.696335e-010 -2.696335e-010 -1 182.61 120.9137)" style="display:none;fill:#FFFFFF;" width="1.9" height="1.9"/>
                
                    <rect x="69.9" y="65.1" transform="matrix(-1 2.696318e-010 -2.696318e-010 -1 141.6472 132.0853)" style="display:none;fill:#FFFFFF;" width="1.9" height="1.9"/>
                
                    <rect x="67.1" y="62.3" transform="matrix(-1 2.696335e-010 -2.696335e-010 -1 136.0614 126.4995)" style="display:none;fill:#FFFFFF;" width="1.9" height="1.9"/>
                
                    <rect x="64.3" y="59.5" transform="matrix(-1 2.696335e-010 -2.696335e-010 -1 130.4756 120.9137)" style="display:none;fill:#FFFFFF;" width="1.9" height="1.9"/>
                
                    <rect x="64.3" y="65.1" transform="matrix(-1 2.696335e-010 -2.696335e-010 -1 130.4756 132.0853)" style="display:none;fill:#FFFFFF;" width="1.9" height="1.9"/>
                
                    <rect x="61.5" y="62.3" transform="matrix(-1 2.681663e-010 -2.681663e-010 -1 124.8898 126.4995)" style="display:none;fill:#FFFFFF;" width="1.9" height="1.9"/>
                
                    <rect x="58.7" y="59.5" transform="matrix(-1 2.701220e-010 -2.701220e-010 -1 119.3039 120.9137)" style="display:none;fill:#FFFFFF;" width="1.9" height="1.9"/>
                <!-->main body end<-->
                
            </g>
            
        </g>
    </g>
</svg>